<svg width="17" height="17" viewBox="0 0 17 17" fill="none" xmlns="http://www.w3.org/2000/svg">
<path d="M2.6386 13.7278C2.00285 12.7569 1.64134 11.6321 1.59232 10.4725C1.54331 9.31289 1.80863 8.16158 2.36019 7.14047C2.91175 6.11936 3.72902 5.26645 4.7255 4.67201C5.72197 4.07758 6.86057 3.76375 8.02075 3.76375C9.18093 3.76375 10.3195 4.07758 11.316 4.67201C12.3125 5.26645 13.1298 6.11936 13.6813 7.14047C14.2329 8.16158 14.4982 9.31289 14.4492 10.4725C14.4002 11.6321 14.0387 12.7569 13.4029 13.7278H15.2043C15.8026 12.5077 16.0805 11.1552 16.0117 9.79781C15.9429 8.44046 15.5298 7.123 14.8112 5.9696C14.0926 4.81621 13.0923 3.86488 11.9045 3.2053C10.7166 2.54572 9.38049 2.19962 8.02197 2.19962C6.66345 2.19962 5.3273 2.54572 4.13949 3.2053C2.95168 3.86488 1.95133 4.81621 1.23274 5.9696C0.514152 7.123 0.101 8.44046 0.0322305 9.79781C-0.0365391 11.1552 0.241338 12.5077 0.839669 13.7278H2.6386Z" fill="#4A4AF4"/>
<path d="M8.12925 6.40407C6.95762 6.40407 5.60903 6.95716 4.87677 7.54077L5.54435 8.94853C6.13138 8.41131 7.08089 7.95223 7.93642 7.95223C8.75045 7.95223 9.19835 8.22328 9.19835 8.77271C9.19835 9.139 8.90057 9.349 8.33794 9.40028C6.2278 9.59441 4.58752 10.2549 4.58752 11.8751C4.58752 13.1608 5.51384 13.9373 7.03817 13.9373C7.49641 13.9379 7.94654 13.8165 8.34228 13.5853C8.73803 13.3542 9.06511 13.0219 9.28989 12.6224V13.7273H11.1913V9.09504C11.1913 7.18181 9.86105 6.40895 8.12925 6.40895V6.40407ZM7.57395 12.4514C6.96373 12.4514 6.62078 12.1877 6.62078 11.7555C6.62078 10.852 7.71918 10.6347 9.1593 10.6347C9.1593 11.5797 8.52711 12.4514 7.57272 12.4514H7.57395Z" fill="#060809"/>
</svg>
